#!OML:ASF H:\Terrain\Patient Classification 1\Walking\liu\liu.ASF
:FULLY-SPECIFIED
:DEGREES
157
root 8.5135 16.354 -4.08019 3.86911 4.31851 -1.54203
lowerback -5.73516 -3.99415 -0.448044
upperback -1.50371 -5.39006 4.26082
thorax 2.10941 -2.70505 4.23347
lowerneck -23.2497 -0.365561 -9.46968
upperneck 20.0005 0.908246 7.61627
head 10.1228 0.622933 4.43578
rclavicle 4.46893e-014 -2.38542e-014
rhumerus -48.4283 -13.4593 -64.3575
rradius 13.6885
rwrist 13.8056
rhand -26.2535 -15.1231
rfingers 7.12502
rthumb 0.300919 -45.1026
lclavicle 4.46893e-014 -2.38542e-014
lhumerus -22.9916 -12.9313 89.9123
lradius 43.3169
lwrist 5.88322
lhand -17.8363 -30.2555
lfingers 7.12502
lthumb 8.42832 -0.443649
rfemur -32.5581 1.01969 26.1962
rtibia 38.9386
rfoot -9.33647 3.4796
rtoes -13.931
lfemur 8.53503 9.88353 -13.533
ltibia 41.888
lfoot 8.52515 1.05859
ltoes -13.232
158
root 8.49009 16.3834 -3.88876 3.89172 4.66308 -2.5423
lowerback -5.87145 -3.91597 0.48261
upperback -1.37909 -5.3534 4.51252
thorax 2.25073 -2.68318 3.96452
lowerneck -23.5106 -0.606592 -9.55998
upperneck 19.7524 0.643569 7.59214
head 10.1077 0.498399 4.3998
rclavicle 3.68497e-014 9.54166e-015
rhumerus -47.9828 -12.742 -65.3213
rradius 14.1847
rwrist 12.0062
rhand -25.799 -13.5181
rfingers 7.12502
rthumb 0.739858 -43.4965
lclavicle 3.68497e-014 9.54166e-015
lhumerus -23.4576 -12.7783 90.1938
lradius 43.2454
lwrist 5.60638
lhand -18.336 -30.0135
lfingers 7.12502
lthumb 7.94609 -0.182897
rfemur -31.5349 0.572146 27.525
rtibia 38.338
rfoot -9.58077 3.65029
rtoes -14.4863
lfemur 6.2232 9.92159 -12.2449
ltibia 45.8837
lfoot 9.27606 2.0887
ltoes -14.0348
159
root 8.46925 16.4115 -3.69847 3.78394 5.08843 -3.50777
lowerback -5.82915 -3.89242 1.27606
upperback -1.34294 -5.37629 4.82695
thorax 2.22399 -2.69025 3.84903
lowerneck -23.4105 -0.776363 -9.94801
upperneck 19.4125 0.464412 7.92131
head 9.98352 0.43091 4.54502
rclavicle 1.92821e-014 2.46493e-014
rhumerus -47.8407 -13.0215 -65.2005
rradius 14.6373
rwrist 12.0449
rhand -25.386 -12.4967
rfingers 7.12502
rthumb 1.13875 -42.4734
lclavicle 1.92821e-014 2.46493e-014
lhumerus -23.9974 -13.1756 90.7043
lradius 42.8407
lwrist 6.28452
lhand -18.4074 -29.7648
lfingers 7.12502
lthumb 7.87717 0.0684917
rfemur -30.34 0.193479 28.7463
rtibia 37.6311
rfoot -9.91775 3.71289
rtoes -14.2392
lfemur 3.98342 9.71686 -11.1134
ltibia 49.6908
lfoot 8.96339 3.36777
ltoes -16.6523
160
root 8.4532 16.4454 -3.50223 3.60404 5.33963 -4.04375
lowerback -5.64869 -3.81711 1.63355
upperback -1.29346 -5.29516 4.99477
thorax 2.15337 -2.64819 3.8419
lowerneck -22.9412 -0.958167 -10.5467
upperneck 18.8213 0.247507 8.52033
head 9.70912 0.361239 4.80295
rclavicle 1.73937e-015 -1.35174e-014
rhumerus -47.6262 -12.6002 -65.8114
rradius 15.1434
rwrist 10.9328
rhand -25.4819 -16.5585
rfingers 7.12502
rthumb 1.04613 -46.5357
lclavicle 1.73937e-015 -1.35174e-014
lhumerus -24.3511 -13.5911 91.2419
lradius 42.1247
lwrist 7.02639
lhand -17.7412 -29.4893
lfingers 7.12502
lthumb 8.52006 0.318858
rfemur -29.0014 -0.14191 29.4614
rtibia 36.8554
rfoot -10.3111 3.8301
rtoes -12.2177
lfemur 1.97065 9.48765 -10.5928
ltibia 53.2311
lfoot 8.30442 5.29542
ltoes -15.0721
161
root 8.43666 16.4875 -3.31412 3.51586 5.49474 -4.45597
lowerback -5.41435 -3.69189 1.86453
upperback -1.25705 -5.13506 5.13841
thorax 2.04408 -2.56762 3.8899
lowerneck -22.5306 -1.21268 -10.9882
upperneck 18.1952 -0.04215 8.80205
head 9.44778 0.231629 4.90932
rclavicle 9.31182e-015 1.66979e-014
rhumerus -47.3239 -10.4867 -67.8596
rradius 15.9938
rwrist 7.44048
rhand -26.4691 -22.9767
rfingers 7.12502
rthumb 0.0926694 -52.9564
lclavicle 9.31182e-015 1.66979e-014
lhumerus -24.6631 -13.7734 91.7015
lradius 41.5273
lwrist 7.41044
lhand -17.123 -29.137
lfingers 7.12502
lthumb 9.11661 0.645951
rfemur -27.8074 -0.390898 30.0152
rtibia 36.0685
rfoot -10.6199 4.01166
rtoes -10.4756
lfemur -0.122122 9.41192 -10.2211
ltibia 56.4412
lfoot 7.35558 7.36547
ltoes -9.72744
